<?xml version="1.0" encoding="UTF-8"?>
<!DOCTYPE svg PUBLIC "-//W3C//DTD SVG 1.1//EN" "http://www.w3.org/Graphics/SVG/1.1/DTD/svg11.dtd">
<!-- Creator: CorelDRAW 2018 (64-Bit) -->
<svg xmlns="http://www.w3.org/2000/svg" xml:space="preserve" width="288.232mm" height="63.7676mm" version="1.1" style="shape-rendering:geometricPrecision; text-rendering:geometricPrecision; image-rendering:optimizeQuality; fill-rule:evenodd; clip-rule:evenodd"
viewBox="0 0 4235.24 936.99"
 xmlns:xlink="http://www.w3.org/1999/xlink">
 <defs>
  <style type="text/css">
   <![CDATA[
    .fil2 {fill:#ED3237}
    .fil0 {fill:#373435;fill-rule:nonzero}
    .fil1 {fill:#ED3237;fill-rule:nonzero}
   ]]>
  </style>
 </defs>
 <g id="Layer_x0020_1">
  <metadata id="CorelCorpID_0Corel-Layer"/>
  <g id="_2450966364720">
   <path class="fil0" d="M345.83 296.73c10.67,0.82 22.37,1.64 35.09,2.46 12.72,0.82 25.65,1.64 38.78,2.46 13.13,0.82 25.65,1.44 37.55,1.85 11.9,0.41 21.96,0.62 30.17,0.62l0 190.85c-7.39,-27.09 -14.36,-51.3 -20.93,-72.65 -6.57,-21.34 -14.77,-39.81 -24.63,-55.41 -9.85,-15.6 -22.37,-28.11 -37.55,-37.55 -15.19,-9.44 -34.68,-15.8 -58.48,-19.08l0 -13.54zm-104.66 16.01c-29.55,5.75 -50.89,18.06 -64.03,36.94 -13.13,18.88 -19.7,41.45 -19.7,67.72 0,25.45 9.03,46.79 27.09,64.03 18.06,17.24 40.63,33.24 67.72,48.02 27.09,14.78 56.43,29.14 88.04,43.09 31.6,13.95 60.95,29.96 88.04,48.02 27.09,18.06 49.66,39.61 67.72,64.64 18.06,25.04 27.09,55.61 27.09,91.73 0,31.19 -8,57.05 -24.01,77.57 -16.01,20.52 -36.32,36.94 -60.95,49.25 -24.63,12.31 -51.3,20.93 -80.03,25.86 -28.73,4.93 -55.41,7.39 -80.03,7.39 -4.93,0 -15.8,-0.41 -32.63,-1.23 -16.83,-0.82 -35.71,-1.85 -56.64,-3.08 -20.93,-1.23 -41.86,-2.46 -62.79,-3.69 -20.93,-1.23 -37.55,-1.85 -49.87,-1.85l0 -205.62c8.21,31.19 17.03,59.31 26.47,84.34 9.44,25.04 21.34,46.17 35.71,63.41 14.36,17.24 32.63,30.58 54.79,40.02 22.16,9.44 50.48,14.16 84.96,14.16 45.15,0 82.7,-10.88 112.66,-32.63 29.96,-21.75 44.94,-52.33 44.94,-91.73 0,-22.16 -9.03,-40.84 -27.09,-56.02 -18.06,-15.19 -40.43,-29.35 -67.1,-42.48 -26.68,-13.13 -55.61,-26.27 -86.8,-39.4 -31.19,-13.13 -60.13,-28.32 -86.81,-45.56 -26.68,-17.24 -49.05,-38.17 -67.1,-62.8 -18.06,-24.63 -27.09,-54.59 -27.09,-89.88 0,-19.7 3.69,-38.78 11.08,-57.25 7.39,-18.47 18.26,-35.09 32.63,-49.87 14.36,-14.77 31.81,-27.09 52.33,-36.94 20.52,-9.85 44.33,-16.42 71.41,-19.7l0 13.54z"/>
   <path class="fil0" d="M1019.55 312.74c-25.45,6.57 -46.58,17.85 -63.41,33.86 -16.83,16.01 -30.58,34.89 -41.25,56.64 -10.67,21.75 -18.67,45.56 -24.01,71.41 -5.34,25.86 -8.83,52.33 -10.47,79.42l334.9 0c4.11,-64.03 -1.64,-116.56 -17.24,-157.6 -15.6,-41.04 -40.22,-68.54 -73.88,-82.49l0 -13.54c33.65,5.75 63.21,17.24 88.65,34.48 25.45,17.24 46.79,37.55 64.03,60.95 17.24,23.39 30.17,49.05 38.78,76.95 8.62,27.91 12.93,55.82 12.93,83.73l0 9.85 -449.41 0c-0.82,9.03 -1.23,18.06 -1.23,27.09 0,9.03 0,18.06 0,27.09 0,35.3 3.08,70.8 9.24,106.51 6.16,35.71 17.03,68.13 32.63,97.27 15.6,29.14 36.94,52.94 64.03,71.41 27.09,18.47 61.97,27.7 104.66,27.7 33.65,0 61.97,-4.1 84.96,-12.31 22.98,-8.21 42.27,-20.32 57.87,-36.32 15.6,-16.01 28.52,-35.71 38.78,-59.1 10.26,-23.39 19.5,-50.28 27.7,-80.65l0 192.08c-22.98,0 -45.76,0.62 -68.34,1.85 -22.57,1.23 -43.51,2.46 -62.79,3.69 -19.29,1.23 -35.91,2.26 -49.87,3.08 -13.95,0.82 -23.39,1.23 -28.32,1.23 -50.89,0 -96.45,-8.41 -136.67,-25.24 -40.22,-16.83 -74.49,-39.61 -102.81,-68.34 -28.32,-28.73 -49.87,-62.18 -64.64,-100.35 -14.77,-38.17 -22.16,-79.01 -22.16,-122.51 0,-18.88 1.23,-36.94 3.69,-54.17l-60.33 0 0 -12.31 61.56 0c5.75,-32.01 15.39,-62.38 28.94,-91.11 13.54,-28.73 30.78,-54.38 51.71,-76.95 20.93,-22.57 45.76,-41.45 74.49,-56.64 28.73,-15.19 61.15,-25.24 97.27,-30.17l0 13.54z"/>
   <path class="fil0" d="M1773.25 369.38c24.63,-24.63 53.15,-43.5 85.57,-56.64 32.42,-13.13 67.93,-18.88 106.5,-17.24 45.97,0.82 82.08,9.64 108.35,26.47 26.27,16.83 45.76,38.79 58.48,65.87 12.72,27.09 20.52,57.87 23.39,92.35 2.87,34.48 4.31,70.18 4.31,107.12l0 336.14 -114.51 0 0 -304.12c0,-48.43 -1.44,-91.11 -4.31,-128.05 -2.87,-36.94 -9.24,-67.93 -19.08,-92.96 -9.85,-25.04 -24.42,-43.71 -43.71,-56.02 -19.29,-12.31 -45.76,-18.06 -79.42,-17.24 -42.68,1.64 -81.26,19.7 -115.74,54.18l-9.85 -9.85zm-56.64 554.07l-114.51 0 0 -615.63 114.51 0 0 615.63z"/>
   <path class="fil0" d="M2758.52 296.73c10.67,0.82 22.37,1.64 35.09,2.46 12.72,0.82 25.65,1.64 38.78,2.46 13.13,0.82 25.65,1.44 37.55,1.85 11.9,0.41 21.96,0.62 30.17,0.62l0 190.85c-7.39,-27.09 -14.36,-51.3 -20.93,-72.65 -6.57,-21.34 -14.77,-39.81 -24.63,-55.41 -9.85,-15.6 -22.37,-28.11 -37.55,-37.55 -15.19,-9.44 -34.68,-15.8 -58.48,-19.08l0 -13.54zm-104.66 16.01c-29.55,5.75 -50.89,18.06 -64.03,36.94 -13.13,18.88 -19.7,41.45 -19.7,67.72 0,25.45 9.03,46.79 27.09,64.03 18.06,17.24 40.63,33.24 67.72,48.02 27.09,14.78 56.43,29.14 88.04,43.09 31.6,13.95 60.95,29.96 88.04,48.02 27.09,18.06 49.66,39.61 67.72,64.64 18.06,25.04 27.09,55.61 27.09,91.73 0,31.19 -8,57.05 -24.01,77.57 -16.01,20.52 -36.32,36.94 -60.95,49.25 -24.63,12.31 -51.3,20.93 -80.03,25.86 -28.73,4.93 -55.41,7.39 -80.03,7.39 -4.93,0 -15.8,-0.41 -32.63,-1.23 -16.83,-0.82 -35.71,-1.85 -56.64,-3.08 -20.93,-1.23 -41.86,-2.46 -62.79,-3.69 -20.93,-1.23 -37.55,-1.85 -49.87,-1.85l0 -205.62c8.21,31.19 17.03,59.31 26.47,84.34 9.44,25.04 21.34,46.17 35.71,63.41 14.36,17.24 32.63,30.58 54.79,40.02 22.16,9.44 50.48,14.16 84.96,14.16 45.15,0 82.7,-10.88 112.66,-32.63 29.96,-21.75 44.94,-52.33 44.94,-91.73 0,-22.16 -9.03,-40.84 -27.09,-56.02 -18.06,-15.19 -40.43,-29.35 -67.1,-42.48 -26.68,-13.13 -55.61,-26.27 -86.8,-39.4 -31.19,-13.13 -60.13,-28.32 -86.81,-45.56 -26.68,-17.24 -49.05,-38.17 -67.1,-62.8 -18.06,-24.63 -27.09,-54.59 -27.09,-89.88 0,-19.7 3.69,-38.78 11.08,-57.25 7.39,-18.47 18.26,-35.09 32.63,-49.87 14.36,-14.77 31.81,-27.09 52.33,-36.94 20.52,-9.85 44.33,-16.42 71.41,-19.7l0 13.54z"/>
   <polygon class="fil0" points="4227.85,923.45 4113.34,923.45 4113.34,307.82 4227.85,307.82 "/>
   <path class="fil1" d="M4105.95 124.36c0,-18.06 6.36,-33.24 19.08,-45.56 12.72,-12.31 28.12,-18.47 46.17,-18.47 18.06,0 33.24,6.16 45.56,18.47 12.31,12.31 18.47,27.5 18.47,45.56l-64.03 65.26 -65.26 -65.26z"/>
   <polygon class="fil2" points="3898.65,100.62 -0,139.69 3898.65,139.69 "/>
   <path class="fil0" d="M3337.43 923.45l-114.51 0 0 -923.45 114.51 0 0 923.45zm56.64 -554.07c23.8,-23.8 51.1,-42.07 81.88,-54.79 30.78,-12.72 64.23,-19.08 100.35,-19.08 48.43,0 86.19,8 113.28,24.01 27.09,16.01 47.4,37.55 60.95,64.64 13.54,27.09 21.96,58.28 25.24,93.58 3.28,35.3 4.93,71.82 4.93,109.58l0 336.14 -114.51 0 0 -304.12c0,-47.61 -1.44,-89.68 -4.31,-126.2 -2.87,-36.53 -9.03,-67.31 -18.47,-92.35 -9.44,-25.04 -23.39,-43.92 -41.86,-56.64 -18.47,-12.72 -43.71,-19.08 -75.72,-19.08 -23.8,0 -45.97,4.93 -66.49,14.78 -20.52,9.85 -38.99,22.98 -55.41,39.4l-9.85 -9.85z"/>
  </g>
 </g>
</svg>
