<svg width="39" height="39" viewBox="0 0 39 39" fill="none" xmlns="http://www.w3.org/2000/svg">
<circle cx="19.5" cy="19.5" r="19.5" fill="white"/>
<path d="M16.31 14.71C16.2173 14.8025 16.1438 14.9124 16.0936 15.0334C16.0434 15.1544 16.0176 15.2841 16.0176 15.415C16.0176 15.546 16.0434 15.6757 16.0936 15.7966C16.1438 15.9176 16.2173 16.0275 16.31 16.12L20.19 20L16.31 23.88C16.123 24.067 16.018 24.3206 16.018 24.585C16.018 24.8494 16.123 25.103 16.31 25.29C16.497 25.477 16.7506 25.582 17.015 25.582C17.2794 25.582 17.533 25.477 17.72 25.29L22.31 20.7C22.4027 20.6075 22.4763 20.4976 22.5265 20.3766C22.5766 20.2557 22.6025 20.126 22.6025 19.995C22.6025 19.8641 22.5766 19.7344 22.5265 19.6134C22.4763 19.4924 22.4027 19.3825 22.31 19.29L17.72 14.7C17.34 14.32 16.7 14.32 16.31 14.71Z" fill="#295F3F"/>
</svg>
