<svg width="39" height="39" viewBox="0 0 39 39" fill="none" xmlns="http://www.w3.org/2000/svg">
<circle cx="19.5" cy="19.5" r="19.5" fill="white"/>
<path d="M22.7076 25.7062C22.8003 25.6137 22.8738 25.5038 22.924 25.3829C22.9742 25.2619 23 25.1322 23 25.0012C23 24.8703 22.9742 24.7406 22.924 24.6196C22.8738 24.4986 22.8003 24.3888 22.7076 24.2962L18.8276 20.4162L22.7076 16.5362C22.8945 16.3493 22.9996 16.0957 22.9996 15.8312C22.9996 15.5668 22.8945 15.3132 22.7076 15.1262C22.5206 14.9393 22.267 14.8342 22.0026 14.8342C21.7381 14.8342 21.4845 14.9393 21.2976 15.1262L16.7076 19.7162C16.6149 19.8088 16.5413 19.9186 16.4911 20.0396C16.4409 20.1606 16.4151 20.2903 16.4151 20.4212C16.4151 20.5522 16.4409 20.6819 16.4911 20.8029C16.5413 20.9238 16.6149 21.0337 16.7076 21.1262L21.2976 25.7162C21.6776 26.0962 22.3176 26.0962 22.7076 25.7062Z" fill="#295F3F"/>
</svg>
